<?xml version="1.0" encoding="UTF-8" standalone="no"?>
<svg
   viewBox="0 0 448 512"
   version="1.1"
   id="svg4"
   sodipodi:docname="google.svg"
   width="448"
   height="512"
   inkscape:version="1.1.1 (26b7af14f2, 2022-01-19)"
   xmlns:inkscape="http://www.inkscape.org/namespaces/inkscape"
   xmlns:sodipodi="http://sodipodi.sourceforge.net/DTD/sodipodi-0.dtd"
   xmlns="http://www.w3.org/2000/svg"
   xmlns:svg="http://www.w3.org/2000/svg">
  <defs
     id="defs8" />
  <sodipodi:namedview
     id="namedview6"
     pagecolor="#ffffff"
     bordercolor="#666666"
     borderopacity="1.0"
     inkscape:pageshadow="2"
     inkscape:pageopacity="0.0"
     inkscape:pagecheckerboard="0"
     showgrid="false"
     width="448px"
     inkscape:zoom="1.0078125"
     inkscape:cx="-97.24031"
     inkscape:cy="256"
     inkscape:window-width="2761"
     inkscape:window-height="1275"
     inkscape:window-x="888"
     inkscape:window-y="445"
     inkscape:window-maximized="0"
     inkscape:current-layer="svg4" />
  <path
     id="path2-3"
     d="M 31.900391 32 C 14.300391 32 4.7369516e-15 46.500781 0 64.300781 L 0 447.69922 C 0 465.49922 14.300391 480 31.900391 480 L 416 480 C 433.59999 480 448 465.49922 448 447.69922 L 448 64.300781 C 448 46.500781 433.59999 32 416 32 L 31.900391 32 z M 227.06445 66 C 278.24187 66 321.29927 84.771037 354.47266 115.72266 L 302.75781 165.44336 C 235.10862 100.16917 109.31055 149.20161 109.31055 256 C 109.31055 322.27016 162.24994 375.97656 227.06445 375.97656 C 302.29831 375.97656 330.492 322.03988 334.93555 294.07617 L 227.06445 294.07617 L 227.06445 228.72656 L 407.94727 228.72656 C 409.70937 238.45639 410.93555 247.80223 410.93555 260.44336 C 410.93555 368.85061 336.69751 446 227.06445 446 C 121.95155 446 37.064453 361.11289 37.064453 256 C 37.064453 150.8871 121.95155 66 227.06445 66 z " />
  <!-- Font Awesome Free 5.15.4 by @fontawesome - https://fontawesome.com License - https://fontawesome.com/license/free (Icons: CC BY 4.0, Fonts: SIL OFL 1.1, Code: MIT License) -->
</svg>
