<?xml version="1.0" encoding="UTF-8" standalone="no"?>
<svg
   width="448"
   height="512"
   viewBox="0 0 336.00001 383.99999"
   version="1.2"
   id="svg5"
   sodipodi:docname="icon_publons.svg"
   inkscape:version="1.1.1 (26b7af14f2, 2022-01-19)"
   xmlns:inkscape="http://www.inkscape.org/namespaces/inkscape"
   xmlns:sodipodi="http://sodipodi.sourceforge.net/DTD/sodipodi-0.dtd"
   xmlns="http://www.w3.org/2000/svg"
   xmlns:svg="http://www.w3.org/2000/svg">
  <defs
     id="defs9" />
  <sodipodi:namedview
     id="namedview7"
     pagecolor="#ffffff"
     bordercolor="#666666"
     borderopacity="1.0"
     inkscape:pageshadow="2"
     inkscape:pageopacity="0.0"
     inkscape:pagecheckerboard="0"
     inkscape:document-units="px"
     showgrid="false"
     inkscape:zoom="0.25195313"
     inkscape:cx="-341.33333"
     inkscape:cy="69.457364"
     inkscape:window-width="1314"
     inkscape:window-height="704"
     inkscape:window-x="1316"
     inkscape:window-y="2187"
     inkscape:window-maximized="1"
     inkscape:current-layer="svg5"
     width="448pt"
     units="px"
     height="682.66669px" />
  <path
     d="M 312,24.000003 H 23.925 c -13.2,0 -23.92500028125018,10.875 -23.92500028125018,24.225 V 335.775 C -2.8125018e-7,349.125 10.725,360 23.925,360 H 312 c 13.2,0 24,-10.875 24,-24.225 V 48.225003 c 0,-13.35 -10.8,-24.225 -24,-24.225 z"
     id="path374"
     sodipodi:nodetypes="sssssssss"
     style="stroke-width:0.75" />
  <g
     id="surface1702"
     transform="matrix(5.8932917,0,0,5.8932917,26.556058,50.55526)"
     style="fill:#ffffff">
    <path
       style="fill:#ffffff;fill-opacity:1;fill-rule:nonzero;stroke:none"
       d="M 37.078125,9.738281 C 36.90625,9.332031 36.695312,8.933594 36.445312,8.542969 36.210938,8.152344 35.960938,7.777344 35.695312,7.417969 35.023438,6.589844 34.257812,5.847656 33.398438,5.191406 32.539062,4.535156 31.59375,4.066406 30.5625,3.785156 29.78125,3.566406 28.984375,3.449219 28.171875,3.433594 27.359375,3.417969 26.5625,3.496094 25.78125,3.667969 25,3.839844 24.242188,4.097656 23.507812,4.441406 22.773438,4.785156 22.085938,5.199219 21.445312,5.683594 21.164062,5.886719 20.898438,6.113281 20.648438,6.363281 20.414062,6.597656 20.1875,6.839844 19.96875,7.089844 19.859375,6.542969 19.773438,5.988281 19.710938,5.425781 c -0.0625,-0.5625 -0.15625,-1.125 -0.28125,-1.6875 -0.0625,-0.0625 -0.132813,-0.132812 -0.210938,-0.207031 -0.0625,-0.078125 -0.148438,-0.109375 -0.257812,-0.09375 -0.28125,0 -0.554688,0.054688 -0.820313,0.164062 -0.25,0.09375 -0.5,0.1875 -0.75,0.28125 -1.09375,0.46875 -2.179687,0.945313 -3.257813,1.429688 -1.078124,0.46875 -2.15625,0.9375 -3.234374,1.40625 -0.125,0.0625 -0.25,0.117188 -0.375,0.164062 -0.125,0.046876 -0.21875,0.125 -0.28125,0.234376 -0.03125,0.15625 -0.04688,0.3125 -0.04688,0.46875 0,0.15625 0.0078,0.3125 0.02344,0.46875 0.07813,0.140624 0.1875,0.257812 0.328125,0.351562 0.140625,0.078125 0.273437,0.15625 0.398437,0.234375 0.359376,0.203125 0.71875,0.398437 1.078126,0.585937 0.359374,0.171876 0.6875,0.390626 0.984374,0.65625 0.28125,0.234376 0.492188,0.515626 0.632813,0.84375 0.15625,0.328126 0.242187,0.664063 0.257813,1.007813 0.01562,0.125 0.02344,0.25 0.02344,0.375 0.01563,0.109375 0.02344,0.21875 0.02344,0.328125 0,2.125 0,4.25 0,6.375 0,2.125 0,4.257812 0,6.398438 0,2.125 0,4.25 0,6.375 0,2.125 0,4.25 0,6.375 -0.03125,0.53125 -0.04687,1.070312 -0.04687,1.617187 0,0.53125 -0.03906,1.0625 -0.117188,1.59375 -0.04687,0.25 -0.148438,0.492187 -0.304688,0.726563 -0.140624,0.25 -0.351562,0.398437 -0.632812,0.445312 -0.40625,0.03125 -0.820312,0.03125 -1.242188,0 -0.40625,-0.01953 -0.8125,-0.0039 -1.21875,0.04687 -0.109374,0 -0.1875,0.04687 -0.234374,0.140625 -0.03125,0.09375 -0.04688,0.1875 -0.04688,0.28125 0,0.25 0,0.492188 0,0.726562 0,0.25 0,0.5 0,0.75 0,0.0625 0.02344,0.109376 0.07031,0.140626 0.0625,0.04687 0.117187,0.09375 0.164063,0.140624 0.765624,-0.01953 1.53125,-0.05078 2.296874,-0.09375 0.765626,-0.03125 1.53125,-0.05469 2.296876,-0.07031 0.734374,-0.01953 1.46875,-0.02734 2.203124,-0.02734 0.734376,0 1.460938,0.0078 2.179688,0.02734 0.734375,0.01563 1.46875,0.03906 2.203125,0.07031 0.734375,0.01563 1.46875,0.04688 2.203125,0.09375 0.109375,0 0.234375,-0.01562 0.375,-0.04687 0.15625,-0.01953 0.242188,-0.09766 0.257812,-0.234376 0.03125,-0.265624 0.04688,-0.53125 0.04688,-0.796874 0,-0.25 -0.01563,-0.507813 -0.04688,-0.773438 0,-0.125 -0.04687,-0.21875 -0.140624,-0.28125 -0.09375,-0.04687 -0.1875,-0.07031 -0.28125,-0.07031 -0.328126,-0.01953 -0.648438,-0.02734 -0.960938,-0.02734 -0.3125,0.01563 -0.625,0.02734 -0.9375,0.02734 -0.1875,-0.01953 -0.382812,-0.02734 -0.585938,-0.02734 -0.1875,0.01563 -0.367187,-0.02344 -0.539062,-0.117188 -0.15625,-0.109375 -0.273438,-0.257812 -0.351562,-0.445312 -0.07813,-0.171875 -0.140626,-0.351563 -0.1875,-0.539063 -0.125,-0.65625 -0.1875,-1.320312 -0.1875,-1.992187 0.01562,-0.6875 0.0078,-1.375 -0.02344,-2.0625 0,-0.75 -0.0078,-1.5 -0.02344,-2.25 -0.01562,-0.75 -0.03125,-1.5 -0.04687,-2.25 0,-0.75 0,-1.507813 0,-2.273438 -0.01563,-0.75 -0.02344,-1.5 -0.02344,-2.25 0.625,0.28125 1.273438,0.5 1.945312,0.65625 0.671876,0.15625 1.34375,0.265625 2.015626,0.328125 1.171874,0.109375 2.34375,0.04687 3.515624,-0.1875 1.1875,-0.234375 2.304688,-0.632812 3.351563,-1.195312 0.65625,-0.359375 1.265625,-0.773438 1.828125,-1.242188 0.578125,-0.46875 1.109375,-0.976562 1.59375,-1.523437 0.484375,-0.5625 0.921875,-1.164063 1.3125,-1.804688 0.390625,-0.625 0.734375,-1.28125 1.03125,-1.96875 0.4375,-1.0625 0.757812,-2.164062 0.960938,-3.304687 0.203124,-1.15625 0.296874,-2.3125 0.28125,-3.46875 0,-0.796875 -0.0625,-1.59375 -0.1875,-2.390625 -0.109376,-0.796875 -0.320313,-1.570313 -0.632813,-2.320313 z m -5.71875,12.421875 c -0.234375,0.84375 -0.59375,1.640625 -1.078125,2.390625 -0.484375,0.75 -1.117188,1.335938 -1.898438,1.757813 -0.671874,0.375 -1.390624,0.570312 -2.15625,0.585937 -0.75,0 -1.484374,-0.07031 -2.203124,-0.207031 -0.546876,-0.109375 -1.070313,-0.296875 -1.570313,-0.5625 -0.5,-0.28125 -0.96875,-0.609375 -1.40625,-0.984375 C 20.6875,24.796875 20.429688,24.375 20.273438,23.875 c -0.140626,-0.5 -0.210938,-1 -0.210938,-1.5 0,-1.078125 0,-2.15625 0,-3.234375 0,-1.078125 0,-2.15625 0,-3.234375 0,-1.09375 0,-2.179688 0,-3.257812 0,-1.09375 0.0078,-2.179688 0.02344,-3.257813 0.484374,-0.6875 1.101562,-1.242187 1.851562,-1.664063 0.75,-0.4375 1.539062,-0.710937 2.367188,-0.820312 0.78125,-0.109375 1.5625,-0.042969 2.34375,0.207031 0.78125,0.234375 1.460937,0.632813 2.039062,1.195313 0.765625,0.75 1.351562,1.625 1.757812,2.625 0.421876,0.984375 0.742188,1.992187 0.960938,3.023437 0.140625,0.671875 0.25,1.351563 0.328125,2.039063 0.07813,0.6875 0.117187,1.382812 0.117187,2.085937 0.01563,0.6875 -0.01562,1.375 -0.09375,2.0625 -0.07812,0.6875 -0.210937,1.359375 -0.398437,2.015625 z m 0,0"
       id="path371" />
  </g>
</svg>
