<?xml version="1.0" encoding="UTF-8" standalone="no"?>
<!-- Created with Inkscape (http://www.inkscape.org/) -->

<svg
   version="1.1"
   id="svg2"
   xml:space="preserve"
   width="448"
   height="512"
   viewBox="0 0 448 512"
   sodipodi:docname="icon_researcherid.svg"
   inkscape:version="1.1.1 (26b7af14f2, 2022-01-19)"
   xmlns:inkscape="http://www.inkscape.org/namespaces/inkscape"
   xmlns:sodipodi="http://sodipodi.sourceforge.net/DTD/sodipodi-0.dtd"
   xmlns="http://www.w3.org/2000/svg"
   xmlns:svg="http://www.w3.org/2000/svg"><sodipodi:namedview
     id="namedview7"
     pagecolor="#ffffff"
     bordercolor="#666666"
     borderopacity="1.0"
     inkscape:pageshadow="2"
     inkscape:pageopacity="0.0"
     inkscape:pagecheckerboard="0"
     showgrid="false"
     width="448px"
     inkscape:zoom="0.25195313"
     inkscape:cx="-136.93023"
     inkscape:cy="25.79845"
     inkscape:window-width="1314"
     inkscape:window-height="704"
     inkscape:window-x="1316"
     inkscape:window-y="2187"
     inkscape:window-maximized="1"
     inkscape:current-layer="svg2" /><defs
     id="defs6" /><g
     id="g388"
     transform="matrix(1.3333333,0,0,1.3333333,5.7875001e-6,4.4e-6)"><path
       d="M 312,24.000003 H 23.925 c -13.2,0 -23.92500028125018,10.875 -23.92500028125018,24.225 V 335.775 C -2.8125018e-7,349.125 10.725,360 23.925,360 H 312 c 13.2,0 24,-10.875 24,-24.225 V 48.225003 c 0,-13.35 -10.8,-24.225 -24,-24.225 z"
       id="path374"
       sodipodi:nodetypes="sssssssss"
       style="stroke-width:0.75" /></g><g
     id="g8"
     transform="matrix(7.6227366,0,0,7.6227366,41.054321,73.054321)"
     style="fill:#ffffff"><g
       id="g10"
       style="fill:#ffffff"><path
         d="M 8.836,44.566 V 3.434 H 23.18 c 0.922,0 1.773,0.023 2.554,0.07 0.797,0.047 1.516,0.117 2.157,0.211 0.656,0.094 1.25,0.203 1.781,0.328 0.516,0.141 0.976,0.305 1.383,0.492 0.781,0.375 1.492,0.883 2.133,1.524 0.656,0.64 1.234,1.414 1.734,2.32 0.5,0.922 0.875,1.93 1.125,3.023 0.265,1.078 0.398,2.258 0.398,3.539 0,0.797 -0.054,1.563 -0.164,2.297 -0.093,0.719 -0.242,1.407 -0.445,2.063 -0.188,0.64 -0.422,1.25 -0.703,1.828 -0.297,0.562 -0.633,1.094 -1.008,1.594 -0.391,0.484 -0.82,0.929 -1.289,1.336 -0.469,0.39 -0.977,0.742 -1.524,1.054 -0.546,0.313 -1.132,0.578 -1.757,0.797 -0.641,0.219 -1.313,0.391 -2.016,0.516 0.734,0.515 1.399,1.062 1.992,1.64 0.61,0.579 1.149,1.172 1.617,1.782 0.25,0.312 0.516,0.687 0.797,1.125 0.282,0.437 0.578,0.937 0.891,1.5 0.328,0.547 0.68,1.164 1.055,1.851 0.359,0.672 0.75,1.414 1.171,2.227 l 4.102,8.015 h -8.133 l -4.922,-8.953 c -0.89,-1.609 -1.64,-2.922 -2.25,-3.937 C 23.266,30.66 22.805,29.949 22.477,29.543 22.164,29.137 21.836,28.793 21.492,28.512 21.164,28.23 20.82,28.012 20.461,27.855 20.102,27.699 19.633,27.59 19.055,27.527 18.492,27.449 17.82,27.41 17.039,27.41 h -1.406 v 17.156 z m 6.797,-23.742 h 5.062 c 1.532,0 2.789,-0.031 3.774,-0.094 0.984,-0.062 1.687,-0.164 2.109,-0.304 0.422,-0.141 0.805,-0.344 1.149,-0.61 0.343,-0.281 0.648,-0.625 0.914,-1.031 0.25,-0.406 0.437,-0.883 0.562,-1.43 0.141,-0.562 0.211,-1.179 0.211,-1.851 0,-0.656 -0.07,-1.242 -0.211,-1.758 -0.125,-0.531 -0.312,-1 -0.562,-1.406 -0.266,-0.391 -0.579,-0.719 -0.938,-0.985 -0.359,-0.281 -0.758,-0.5 -1.195,-0.656 -0.328,-0.109 -0.953,-0.187 -1.875,-0.234 -0.922,-0.047 -2.141,-0.07 -3.656,-0.07 h -5.344 z"
         style="fill:#ffffff;fill-opacity:1;fill-rule:nonzero;stroke:none"
         id="path12" /></g></g></svg>
